<svg width="19" height="16" viewBox="0 0 19 16" fill="none" xmlns="http://www.w3.org/2000/svg">
<path opacity="0.4" d="M7.25 13.25C7.25 13.5815 7.1183 13.8995 6.88388 14.1339C6.64946 14.3683 6.33152 14.5 6 14.5H5.80562C5.18062 14.5 4.61219 14.0663 4.51562 13.4497C4.42562 12.8744 4.73187 12.3803 5.19812 12.1538C5.37719 12.0669 5.5 11.8959 5.5 11.6966V11.1459C5.49987 11.0656 5.48053 10.9866 5.44359 10.9153C5.40665 10.844 5.35318 10.7826 5.28766 10.7362C5.22213 10.6897 5.14646 10.6597 5.06695 10.6485C4.98744 10.6373 4.90641 10.6453 4.83063 10.6719C4.23925 10.8792 3.73695 11.2832 3.40773 11.8164C3.0785 12.3496 2.94229 12.9797 3.02187 13.6012C3.19562 14.9944 4.45469 16 5.85875 16H6C6.72935 16 7.42882 15.7103 7.94454 15.1945C8.46027 14.6788 8.75 13.9793 8.75 13.25V8H7.25V13.25ZM14.1694 9.67188C14.0936 9.64534 14.0126 9.63733 13.9331 9.64852C13.8535 9.6597 13.7779 9.68975 13.7123 9.73615C13.6468 9.78256 13.5934 9.84397 13.5564 9.91526C13.5195 9.98655 13.5001 10.0656 13.5 10.1459V10.6966C13.5 10.8959 13.6228 11.0669 13.8019 11.1538C14.2681 11.3803 14.5744 11.8744 14.4844 12.4497C14.3878 13.0663 13.8188 13.5 13.1947 13.5H13C12.6685 13.5 12.3505 13.3683 12.1161 13.1339C11.8817 12.8995 11.75 12.5815 11.75 12.25V8H10.25V12.25C10.25 12.9793 10.5397 13.6788 11.0555 14.1945C11.5712 14.7103 12.2707 15 13 15H13.1416C14.5453 15 15.8044 13.9944 15.9781 12.6012C16.0577 11.9797 15.9215 11.3496 15.5923 10.8164C15.263 10.2832 14.7608 9.87917 14.1694 9.67188ZM2.5 4V5H16.5V4H2.5Z" fill="#FFBC00"/>
<path d="M17.5 0H1.5C1.23478 0 0.98043 0.105357 0.792893 0.292893C0.605357 0.48043 0.5 0.734784 0.5 1L0.5 6C0.5 6.26522 0.605357 6.51957 0.792893 6.70711C0.98043 6.89464 1.23478 7 1.5 7H17.5C17.7652 7 18.0196 6.89464 18.2071 6.70711C18.3946 6.51957 18.5 6.26522 18.5 6V1C18.5 0.734784 18.3946 0.48043 18.2071 0.292893C18.0196 0.105357 17.7652 0 17.5 0V0ZM16.5 5H2.5V4H16.5V5Z" fill="#FFBC00"/>
</svg>
