<svg width="21" height="24" viewBox="0 0 21 24" fill="none" xmlns="http://www.w3.org/2000/svg">
<path opacity="0.4" d="M6.00457 10.3125H19.8754C20.1737 10.3125 20.4599 10.431 20.6709 10.642C20.8819 10.853 21.0004 11.1391 21.0004 11.4375V12.5625C21.0004 12.8609 20.8819 13.147 20.6709 13.358C20.4599 13.569 20.1737 13.6875 19.8754 13.6875H6.00457L4.33301 12L6.00457 10.3125Z" fill="white"/>
<path d="M6.6825 19.1728L0.32812 12.8213V12.8185C0.118137 12.5985 0.000976562 12.306 0.000976562 12.0019C0.000976562 11.6978 0.118137 11.4053 0.32812 11.1853L0.330933 11.1825L6.6825 4.83143C6.89347 4.62047 7.17961 4.50195 7.47796 4.50195C7.77632 4.50195 8.06246 4.62047 8.27343 4.83143L9.07031 5.62831C9.28127 5.83928 9.39979 6.12542 9.39979 6.42378C9.39979 6.72213 9.28127 7.00827 9.07031 7.21924L4.33265 12.001L9.07031 16.7822C9.28127 16.9932 9.39979 17.2793 9.39979 17.5777C9.39979 17.876 9.28127 18.1622 9.07031 18.3732L8.27343 19.17C8.06283 19.3814 7.7769 19.5004 7.47855 19.5009C7.18019 19.5014 6.89384 19.3834 6.6825 19.1728Z" fill="white"/>
</svg>
