<svg width="21" height="24" viewBox="0 0 21 24" fill="none" xmlns="http://www.w3.org/2000/svg">
<g clip-path="url(#clip0)">
<path opacity="0.4" d="M20.9996 18C20.9949 18.7687 20.3902 19.5 19.4949 19.5H1.50334C0.608969 19.5 0.00381296 18.7687 -0.000405792 18C-0.00245376 17.6214 0.14219 17.2567 0.403188 16.9823C1.30881 16.0092 3.00334 14.5448 3.00334 9.75C3.00334 6.10781 5.55709 3.19219 9.00053 2.47688V1.5C9.00053 1.10218 9.15857 0.720644 9.43987 0.43934C9.72118 0.158035 10.1027 0 10.5005 0C10.8984 0 11.2799 0.158035 11.5612 0.43934C11.8425 0.720644 12.0005 1.10218 12.0005 1.5V2.47688C15.4412 3.19219 17.9949 6.10781 17.9949 9.75C17.9949 14.5453 19.6894 16.0092 20.5951 16.9823C20.8563 17.2566 21.0013 17.6213 20.9996 18Z" fill="black"/>
<path d="M7.5 21H13.5C13.5 21.7956 13.1839 22.5587 12.6213 23.1213C12.0587 23.6839 11.2956 24 10.5 24C9.70435 24 8.94129 23.6839 8.37868 23.1213C7.81607 22.5587 7.5 21.7956 7.5 21Z" fill="black"/>
</g>
<defs>
<clipPath id="clip0">
<rect width="21" height="24" fill="white"/>
</clipPath>
</defs>
</svg>
