<svg width="19" height="16" viewBox="0 0 19 16" fill="none" xmlns="http://www.w3.org/2000/svg">
<path opacity="0.4" d="M14.5 6C14.5 5.73478 14.3946 5.48043 14.2071 5.29289C14.0196 5.10536 13.7652 5 13.5 5H10.5V3C10.5 2.20435 10.1839 1.44129 9.62132 0.87868C9.05871 0.31607 8.29565 0 7.5 0C6.70435 0 5.94129 0.31607 5.37868 0.87868C4.81607 1.44129 4.5 2.20435 4.5 3V5H1.5C1.23478 5 0.98043 5.10536 0.792893 5.29289C0.605357 5.48043 0.5 5.73478 0.5 6L0.5 14C0.5 14.2652 0.605357 14.5196 0.792893 14.7071C0.98043 14.8946 1.23478 15 1.5 15H5.5V8C5.5 7.73478 5.60536 7.48043 5.79289 7.29289C5.98043 7.10536 6.23478 7 6.5 7H14.5V6ZM9 5H6V3C6 2.60218 6.15804 2.22064 6.43934 1.93934C6.72064 1.65804 7.10218 1.5 7.5 1.5C7.89782 1.5 8.27936 1.65804 8.56066 1.93934C8.84196 2.22064 9 2.60218 9 3V5ZM15.25 10H14.75C14.6837 10 14.6201 10.0263 14.5732 10.0732C14.5263 10.1201 14.5 10.1837 14.5 10.25V11C14.4997 11.2794 14.4409 11.5556 14.3275 11.8109C14.214 12.0662 14.0484 12.295 13.8413 12.4824C13.6341 12.6699 13.39 12.8119 13.1247 12.8994C12.8593 12.9869 12.5786 13.0178 12.3006 12.9903C11.2616 12.8894 10.5 11.9553 10.5 10.9113V10.25C10.5 10.1837 10.4737 10.1201 10.4268 10.0732C10.3799 10.0263 10.3163 10 10.25 10H9.75C9.6837 10 9.62011 10.0263 9.57322 10.0732C9.52634 10.1201 9.5 10.1837 9.5 10.25V10.8956C9.5 12.4203 10.5938 13.7806 12.1053 13.9747C12.5289 14.0303 12.9594 13.9949 13.3682 13.8709C13.777 13.7469 14.1546 13.5371 14.4759 13.2556C14.7971 12.9741 15.0547 12.6273 15.2313 12.2383C15.4079 11.8493 15.4995 11.4272 15.5 11V10.25C15.5 10.1837 15.4737 10.1201 15.4268 10.0732C15.3799 10.0263 15.3163 10 15.25 10Z" fill="#FFBC00"/>
<path d="M17.5 8H7.5C7.23478 8 6.98043 8.10536 6.79289 8.29289C6.60536 8.48043 6.5 8.73478 6.5 9V15C6.5 15.2652 6.60536 15.5196 6.79289 15.7071C6.98043 15.8946 7.23478 16 7.5 16H17.5C17.7652 16 18.0196 15.8946 18.2071 15.7071C18.3946 15.5196 18.5 15.2652 18.5 15V9C18.5 8.73478 18.3946 8.48043 18.2071 8.29289C18.0196 8.10536 17.7652 8 17.5 8ZM15.5 11C15.4995 11.4272 15.4079 11.8493 15.2313 12.2383C15.0547 12.6273 14.7971 12.9741 14.4759 13.2556C14.1546 13.5371 13.777 13.7469 13.3682 13.8709C12.9594 13.9949 12.5289 14.0303 12.1053 13.9747C10.5938 13.7812 9.5 12.4203 9.5 10.8956V10.25C9.5 10.1837 9.52634 10.1201 9.57322 10.0732C9.62011 10.0263 9.6837 10 9.75 10H10.25C10.3163 10 10.3799 10.0263 10.4268 10.0732C10.4737 10.1201 10.5 10.1837 10.5 10.25V10.9113C10.5 11.9553 11.2616 12.8894 12.3006 12.9903C12.5786 13.0178 12.8593 12.9869 13.1247 12.8994C13.39 12.8119 13.6341 12.6699 13.8413 12.4824C14.0484 12.295 14.214 12.0662 14.3275 11.8109C14.4409 11.5556 14.4997 11.2794 14.5 11V10.25C14.5 10.1837 14.5263 10.1201 14.5732 10.0732C14.6201 10.0263 14.6837 10 14.75 10H15.25C15.3163 10 15.3799 10.0263 15.4268 10.0732C15.4737 10.1201 15.5 10.1837 15.5 10.25V11Z" fill="#FFBC00"/>
</svg>
