<svg width="33" height="24" viewBox="0 0 33 24" fill="none" xmlns="http://www.w3.org/2000/svg">
<path d="M32.1875 7H28.5L27.4375 4.4375C26.375 1.75 23.8125 0 20.9375 0H13C10.125 0 7.5625 1.75 6.5 4.4375L5.4375 7H1.75C1.25 7 0.875 7.5 1 7.9375L1.375 9.4375C1.4375 9.8125 1.75 10 2.125 10H3.375C2.5 10.75 2 11.8125 2 13V16C2 17.0625 2.375 17.9375 3 18.625V22C3 23.125 3.875 24 5 24H7C8.0625 24 9 23.125 9 22V20H25V22C25 23.125 25.875 24 27 24H29C30.0625 24 31 23.125 31 22V18.625C31.5625 17.9375 32 17.0625 32 16V13C32 11.8125 31.4375 10.75 30.5625 10H31.875C32.1875 10 32.5 9.8125 32.5625 9.4375L32.9375 7.9375C33.0625 7.5 32.6875 7 32.1875 7ZM10.1875 5.9375C10.6875 4.75 11.75 4 13 4H20.9375C22.1875 4 23.25 4.75 23.75 5.9375L25 9H9L10.1875 5.9375ZM7 16C5.75 16 5 15.25 5 14C5 12.8125 5.75 12 7 12C8.1875 12 10 13.8125 10 15C10 16.1875 8.1875 16 7 16ZM27 16C25.75 16 24 16.1875 24 15C24 13.8125 25.75 12 27 12C28.1875 12 29 12.8125 29 14C29 15.25 28.1875 16 27 16Z" fill="#323D44"/>
</svg>
