<svg width="17" height="16" viewBox="0 0 17 16" fill="none" xmlns="http://www.w3.org/2000/svg">
<g clip-path="url(#clip0)">
<path opacity="0.4" d="M10.4844 4C10.7842 3.99997 11.0771 4.08978 11.3254 4.25783C11.5736 4.42588 11.7658 4.66447 11.8772 4.94281L12.5 6.5H4.5L5.12281 4.94281C5.23417 4.66447 5.42638 4.42588 5.67465 4.25783C5.92291 4.08978 6.21583 3.99997 6.51562 4H10.4844ZM3 12C2.71956 12.0003 2.44222 11.9414 2.18607 11.8273C1.92991 11.7131 1.70072 11.5462 1.51344 11.3375C1.50452 11.3912 1.50002 11.4456 1.5 11.5V13C1.5 13.2652 1.60536 13.5196 1.79289 13.7071C1.98043 13.8946 2.23478 14 2.5 14H3.5C3.76522 14 4.01957 13.8946 4.20711 13.7071C4.39464 13.5196 4.5 13.2652 4.5 13V12H3ZM14 12H12.5V13C12.5 13.2652 12.6054 13.5196 12.7929 13.7071C12.9804 13.8946 13.2348 14 13.5 14H14.5C14.7652 14 15.0196 13.8946 15.2071 13.7071C15.3946 13.5196 15.5 13.2652 15.5 13V11.5C15.5 11.4456 15.4955 11.3912 15.4866 11.3375C15.2993 11.5462 15.0701 11.7131 14.8139 11.8273C14.5578 11.9414 14.2804 12.0003 14 12Z" fill="#FFBC00"/>
<path d="M16.1251 5.50002H14.2539L13.7339 4.20002C13.4761 3.5492 13.0282 2.99118 12.4486 2.59873C11.8689 2.20628 11.1845 1.99764 10.4845 2.00002H6.51574C5.81569 1.99769 5.13117 2.20634 4.55144 2.59877C3.97171 2.9912 3.52367 3.5492 3.26574 4.20002L2.74606 5.50002H0.875119C0.818164 5.50008 0.761969 5.5131 0.7108 5.53812C0.659631 5.56313 0.614832 5.59947 0.579802 5.64438C0.544772 5.68929 0.520432 5.74159 0.508629 5.79731C0.496826 5.85303 0.49787 5.9107 0.511682 5.96596L0.699182 6.71596C0.719447 6.79703 0.766214 6.86902 0.832058 6.92048C0.897902 6.97194 0.979049 6.99994 1.06262 7.00002H1.69012C1.47425 7.18592 1.3009 7.4161 1.18185 7.67491C1.06279 7.93373 1.00081 8.21513 1.00012 8.50002V10C1.00012 10.5305 1.21083 11.0392 1.58591 11.4142C1.96098 11.7893 2.46969 12 3.00012 12H14.0001C14.5306 12 15.0393 11.7893 15.4143 11.4142C15.7894 11.0392 16.0001 10.5305 16.0001 10V8.50002C15.9994 8.21517 15.9374 7.9338 15.8184 7.67499C15.6995 7.41619 15.5262 7.18599 15.3104 7.00002H15.9376C16.0212 7.00001 16.1025 6.97204 16.1684 6.92058C16.2343 6.86911 16.2811 6.79708 16.3014 6.71596L16.4889 5.96596C16.5027 5.91068 16.5037 5.85297 16.4919 5.79723C16.4801 5.74149 16.4557 5.68917 16.4207 5.64426C16.3856 5.59934 16.3407 5.56301 16.2895 5.53802C16.2383 5.51302 16.1821 5.50003 16.1251 5.50002ZM5.12293 4.94283C5.23429 4.66449 5.4265 4.4259 5.67477 4.25785C5.92303 4.0898 6.21595 3.99999 6.51574 4.00002H10.4845C10.7843 3.99999 11.0772 4.0898 11.3255 4.25785C11.5737 4.4259 11.7659 4.66449 11.8773 4.94283L12.5001 6.50002H4.50012L5.12293 4.94283ZM3.50012 8.00002C4.10012 8.00002 5.00012 8.89721 5.00012 9.49533C5.00012 10.0935 4.10012 9.99377 3.50012 9.99377C2.90012 9.99377 2.50012 9.59377 2.50012 8.99689C2.50012 8.40002 2.90012 8.00002 3.50012 8.00002ZM12.0001 9.49533C12.0001 8.89721 12.9001 8.00002 13.5001 8.00002C14.1001 8.00002 14.5001 8.39877 14.5001 8.99689C14.5001 9.59502 14.1001 9.99377 13.5001 9.99377C12.9001 9.99377 12.0001 10.0938 12.0001 9.49533Z" fill="#FFBC00"/>
</g>
<defs>
<clipPath id="clip0">
<rect width="16" height="16" fill="white" transform="translate(0.5)"/>
</clipPath>
</defs>
</svg>
