<svg width="40" height="40" viewBox="0 0 40 40" fill="none" xmlns="http://www.w3.org/2000/svg">
<path opacity="0.4" d="M20 0.625C9.29688 0.625 0.625 9.29688 0.625 20C0.625 30.7031 9.29688 39.375 20 39.375C30.7031 39.375 39.375 30.7031 39.375 20C39.375 9.29688 30.7031 0.625 20 0.625ZM32.1336 15.8836L17.7586 30.2586C17.5242 30.4928 17.2064 30.6244 16.875 30.6244C16.5436 30.6244 16.2258 30.4928 15.9914 30.2586L7.86641 22.1336C7.63216 21.8992 7.50058 21.5814 7.50058 21.25C7.50058 20.9186 7.63216 20.6008 7.86641 20.3664L9.63359 18.5984C9.74967 18.4823 9.88748 18.3902 10.0392 18.3274C10.1908 18.2646 10.3534 18.2322 10.5176 18.2322C10.6818 18.2322 10.8443 18.2646 10.996 18.3274C11.1477 18.3902 11.2855 18.4823 11.4016 18.5984L16.875 24.0719L28.5984 12.3484C28.7145 12.2323 28.8523 12.1402 29.004 12.0774C29.1557 12.0146 29.3182 11.9822 29.4824 11.9822C29.6466 11.9822 29.8092 12.0146 29.9608 12.0774C30.1125 12.1402 30.2503 12.2323 30.3664 12.3484L32.1336 14.1164C32.3678 14.3508 32.4994 14.6686 32.4994 15C32.4994 15.3314 32.3678 15.6492 32.1336 15.8836Z" fill="#F9CA45"/>
<path d="M17.759 30.2588C17.5246 30.493 17.2068 30.6246 16.8754 30.6246C16.544 30.6246 16.2262 30.493 15.9918 30.2588L7.8668 22.1338C7.63256 21.8994 7.50098 21.5816 7.50098 21.2502C7.50098 20.9188 7.63256 20.601 7.8668 20.3666L9.63399 18.5986C9.75007 18.4825 9.88788 18.3904 10.0396 18.3276C10.1912 18.2648 10.3538 18.2324 10.518 18.2324C10.6822 18.2324 10.8447 18.2648 10.9964 18.3276C11.1481 18.3904 11.2859 18.4825 11.402 18.5986L16.8754 24.0721L28.5988 12.3486C28.7149 12.2325 28.8527 12.1404 29.0044 12.0776C29.1561 12.0148 29.3186 11.9824 29.4828 11.9824C29.647 11.9824 29.8096 12.0148 29.9612 12.0776C30.1129 12.1404 30.2507 12.2325 30.3668 12.3486L32.134 14.1166C32.3682 14.351 32.4998 14.6688 32.4998 15.0002C32.4998 15.3316 32.3682 15.6494 32.134 15.8838L17.759 30.2588Z" fill="#F9CA45"/>
</svg>
