<svg width="16" height="16" viewBox="0 0 16 16" fill="none" xmlns="http://www.w3.org/2000/svg">
<g clip-path="url(#clip0)">
<path opacity="0.4" d="M5 9V7C4.9995 6.46972 4.78863 5.9613 4.41367 5.58633C4.0387 5.21137 3.53028 5.0005 3 5H2C2 4.20435 2.31607 3.44129 2.87868 2.87868C3.44129 2.31607 4.20435 2 5 2H11C11.7956 2 12.5587 2.31607 13.1213 2.87868C13.6839 3.44129 14 4.20435 14 5H13C12.4697 5.0005 11.9613 5.21137 11.5863 5.58633C11.2114 5.9613 11.0005 6.46972 11 7V9H5Z" fill="#FFBC00"/>
<path d="M16.0003 8.00001C15.9991 8.34946 15.906 8.69244 15.7305 8.99463C15.555 9.29682 15.3032 9.5476 15.0003 9.72189V13.5C15.0003 13.6326 14.9477 13.7598 14.8539 13.8536C14.7601 13.9473 14.6329 14 14.5003 14H12.5003C12.3677 14 12.2405 13.9473 12.1468 13.8536C12.053 13.7598 12.0003 13.6326 12.0003 13.5V13H4.00033V13.5C4.00033 13.6326 3.94766 13.7598 3.85389 13.8536C3.76012 13.9473 3.63294 14 3.50033 14H1.50033C1.36773 14 1.24055 13.9473 1.14678 13.8536C1.05301 13.7598 1.00033 13.6326 1.00033 13.5V9.72189C0.619022 9.5028 0.320859 9.16377 0.15228 8.75759C-0.0162994 8.35141 -0.045833 7.90089 0.0682785 7.47618C0.18239 7.05147 0.433741 6.67642 0.783189 6.40943C1.13264 6.14243 1.56057 5.99849 2.00033 6.00001H3.00033C3.26555 6.00001 3.5199 6.10537 3.70744 6.29291C3.89498 6.48044 4.00033 6.7348 4.00033 7.00001V10H12.0003V7.00001C12.0003 6.7348 12.1057 6.48044 12.2932 6.29291C12.4808 6.10537 12.7351 6.00001 13.0003 6.00001H14.0003C14.5306 6.00051 15.039 6.21138 15.414 6.58635C15.789 6.96131 15.9998 7.46973 16.0003 8.00001Z" fill="#FFBC00"/>
</g>
<defs>
<clipPath id="clip0">
<rect width="16" height="16" fill="white"/>
</clipPath>
</defs>
</svg>
