<svg width="82" height="82" viewBox="0 0 82 82" fill="none" xmlns="http://www.w3.org/2000/svg">
<circle cx="41" cy="41" r="41" fill="#E3EAED"/>
<path d="M41 21.834C35.7157 21.834 31.4167 26.1331 31.4167 31.4173C31.4167 36.7016 35.7157 41.0007 41 41.0007C46.2843 41.0007 50.5833 36.7016 50.5833 31.4173C50.5833 26.1331 46.2843 21.834 41 21.834ZM41 37.1673C37.8298 37.1673 35.25 34.5875 35.25 31.4173C35.25 28.2472 37.8298 25.6673 41 25.6673C44.1702 25.6673 46.75 28.2472 46.75 31.4173C46.75 34.5875 44.1702 37.1673 41 37.1673ZM58.25 58.2507V56.334C58.25 48.9376 52.2297 42.9173 44.8333 42.9173H37.1667C29.7683 42.9173 23.75 48.9376 23.75 56.334V58.2507H27.5833V56.334C27.5833 51.0497 31.8824 46.7507 37.1667 46.7507H44.8333C50.1176 46.7507 54.4167 51.0497 54.4167 56.334V58.2507H58.25Z" fill="#19194A"/>
</svg>
