<svg width="17" height="16" viewBox="0 0 17 16" fill="none" xmlns="http://www.w3.org/2000/svg">
<path opacity="0.4" d="M15.611 7.11125H14.9376C13.3538 7.11125 12.5604 5.19656 13.6804 4.07656L14.1563 3.6C14.3132 3.4315 14.3987 3.20866 14.3945 2.97844C14.3904 2.74822 14.2971 2.52857 14.1343 2.36577C13.9715 2.20297 13.7518 2.10973 13.5216 2.10568C13.2913 2.10163 13.0685 2.18709 12.9001 2.34406L12.4238 2.81969C11.3038 3.93938 9.38913 3.14625 9.38913 1.5625V0.889063C9.38913 0.653268 9.29546 0.427132 9.12873 0.2604C8.962 0.0936688 8.73586 0 8.50007 0C8.26427 0 8.03814 0.0936688 7.8714 0.2604C7.70467 0.427132 7.611 0.653268 7.611 0.889063V1.56281C7.611 3.14656 5.69632 3.93969 4.57632 2.82L4.10007 2.34406C3.9316 2.18709 3.70879 2.10163 3.47857 2.10568C3.24834 2.10973 3.02867 2.20297 2.86583 2.36577C2.70299 2.52857 2.60969 2.74822 2.60559 2.97844C2.60148 3.20866 2.68689 3.4315 2.84382 3.6L3.32038 4.07656C4.44038 5.19656 3.64694 7.11125 2.06319 7.11125H1.38913C1.27099 7.10904 1.1536 7.13039 1.04381 7.17407C0.934028 7.21774 0.834048 7.28287 0.74972 7.36563C0.665391 7.44839 0.598406 7.54713 0.552678 7.65608C0.50695 7.76503 0.483398 7.882 0.483398 8.00016C0.483398 8.11831 0.50695 8.23528 0.552678 8.34423C0.598406 8.45318 0.665391 8.55192 0.74972 8.63468C0.834048 8.71745 0.934028 8.78257 1.04381 8.82625C1.1536 8.86992 1.27099 8.89128 1.38913 8.88906H2.06257C3.64632 8.88906 4.43975 10.8041 3.31975 11.9241L2.84382 12.4003C2.68843 12.5691 2.60431 12.7914 2.60905 13.0208C2.61379 13.2502 2.70703 13.4689 2.86926 13.6311C3.03149 13.7934 3.25016 13.8866 3.47955 13.8913C3.70893 13.8961 3.93127 13.812 4.10007 13.6566L4.57632 13.18C5.69632 12.06 7.611 12.8534 7.611 14.4372V15.1103C7.611 15.3461 7.70467 15.5722 7.8714 15.739C8.03814 15.9057 8.26427 15.9994 8.50007 15.9994C8.73586 15.9994 8.962 15.9057 9.12873 15.739C9.29546 15.5722 9.38913 15.3461 9.38913 15.1103V14.4378C9.38913 12.8541 11.3038 12.0606 12.4238 13.1806L12.9001 13.6566C13.0689 13.812 13.2912 13.8961 13.5206 13.8913C13.75 13.8866 13.9686 13.7934 14.1309 13.6311C14.2931 13.4689 14.3863 13.2502 14.3911 13.0208C14.3958 12.7914 14.3117 12.5691 14.1563 12.4003L13.6798 11.9241C12.5598 10.8041 13.3532 8.88906 14.9369 8.88906H15.6101C15.7282 8.89128 15.8456 8.86992 15.9554 8.82625C16.0652 8.78257 16.1651 8.71745 16.2495 8.63468C16.3338 8.55192 16.4008 8.45318 16.4465 8.34423C16.4922 8.23528 16.5158 8.11831 16.5158 8.00016C16.5158 7.882 16.4922 7.76503 16.4465 7.65608C16.4008 7.54713 16.3338 7.44839 16.2495 7.36563C16.1651 7.28287 16.0652 7.21774 15.9554 7.17407C15.8456 7.13039 15.7282 7.10904 15.6101 7.11125H15.611ZM7.50007 8.50031C7.20339 8.50031 6.91338 8.41234 6.66671 8.24752C6.42004 8.0827 6.22778 7.84843 6.11425 7.57434C6.00072 7.30025 5.97101 6.99865 6.02889 6.70768C6.08677 6.41671 6.22963 6.14943 6.43941 5.93965C6.64919 5.72987 6.91646 5.58701 7.20743 5.52913C7.4984 5.47126 7.8 5.50096 8.07409 5.61449C8.34818 5.72802 8.58245 5.92028 8.74727 6.16696C8.91209 6.41363 9.00007 6.70364 9.00007 7.00031C9.00007 7.39814 8.84203 7.77967 8.56073 8.06097C8.27942 8.34228 7.89789 8.50031 7.50007 8.50031ZM10.0001 10.2503C9.85173 10.2503 9.70673 10.2063 9.58339 10.1239C9.46005 10.0415 9.36392 9.92437 9.30716 9.78732C9.25039 9.65028 9.23554 9.49948 9.26448 9.354C9.29342 9.20851 9.36485 9.07487 9.46974 8.96998C9.57463 8.86509 9.70826 8.79366 9.85375 8.76472C9.99924 8.73578 10.15 8.75064 10.2871 8.8074C10.4241 8.86417 10.5413 8.9603 10.6237 9.08364C10.7061 9.20697 10.7501 9.35198 10.7501 9.50031C10.7501 9.69923 10.671 9.88999 10.5304 10.0306C10.3897 10.1713 10.199 10.2503 10.0001 10.2503Z" fill="#FFBC00"/>
<path d="M9.00024 7.07031C9.00024 7.36698 8.91227 7.65699 8.74745 7.90366C8.58262 8.15034 8.34836 8.3426 8.07427 8.45613C7.80018 8.56966 7.49858 8.59936 7.20761 8.54149C6.91664 8.48361 6.64936 8.34075 6.43958 8.13097C6.22981 7.92119 6.08694 7.65392 6.02907 7.36295C5.97119 7.07197 6.00089 6.77037 6.11443 6.49629C6.22796 6.2222 6.42022 5.98793 6.66689 5.82311C6.91356 5.65829 7.20357 5.57031 7.50024 5.57031C7.89807 5.57031 8.2796 5.72835 8.5609 6.00965C8.84221 6.29096 9.00024 6.67249 9.00024 7.07031Z" fill="#FFBC00"/>
</svg>
