<svg width="119" height="48" viewBox="0 0 119 48" fill="none" xmlns="http://www.w3.org/2000/svg">
<g clip-path="url(#clip0)">
<path d="M85.8069 8.26943C83.9608 6.42337 83.9608 3.17539 85.8069 1.3864C87.6554 -0.462135 90.9009 -0.462135 92.7544 1.3864C94.603 3.17539 94.603 6.42337 92.7544 8.26943C90.9059 10.1155 87.648 10.1056 85.8069 8.26943Z" fill="#FFBC00"/>
<path d="M115.726 1.19054L115.014 1.2352C113.437 1.33965 111.905 1.7985 110.53 2.57757C109.275 3.28873 108.233 4.32169 107.51 5.56997C107.339 5.79394 107.239 6.06479 107.225 6.3466C107.352 6.26472 107.431 6.22254 107.501 6.16547C107.997 5.75854 108.493 5.32432 109.002 4.94221C109.985 4.19435 111.112 3.65714 112.312 3.36412C114.498 2.85546 116.47 3.33187 118.249 4.67671C118.345 4.76537 118.434 4.86163 118.515 4.96454C118.267 4.91243 118.138 4.88762 118.004 4.85288C114.349 3.90255 111.093 4.72137 108.208 7.10338C107.734 7.5114 107.286 7.94898 106.868 8.41349C106.663 8.63781 106.393 8.79228 106.096 8.85515C106.029 8.88088 105.956 8.88932 105.884 8.8797C105.812 8.87008 105.744 8.8427 105.686 8.80006C105.627 8.75741 105.58 8.70086 105.549 8.63551C105.518 8.57017 105.504 8.49812 105.508 8.4259C105.484 7.94304 105.502 7.45899 105.563 6.97932C105.692 5.86688 106.101 4.80535 106.752 3.89405C107.403 2.98276 108.274 2.25149 109.285 1.76867C110.973 0.924615 112.865 0.57455 114.743 0.758796C114.928 0.760329 115.11 0.799398 115.279 0.873621C115.448 0.947845 115.6 1.05568 115.726 1.19054Z" fill="#FFBC00"/>
<path d="M41.4246 8.9081C41.4246 6.72922 39.6583 4.96289 37.4794 4.96289C35.3005 4.96289 33.5342 6.72922 33.5342 8.9081V31.5198C33.5342 33.6987 35.3005 35.465 37.4794 35.465C39.6583 35.465 41.4246 33.6987 41.4246 31.5198V8.9081Z" fill="white"/>
<path d="M65.0189 4.1818C61.757 4.17722 58.5724 5.17411 55.8953 7.03774C55.4788 6.26415 54.816 5.65171 54.012 5.29752C53.208 4.94333 52.3088 4.86764 51.4568 5.08247C50.6049 5.2973 49.8491 5.79035 49.3092 6.48344C48.7693 7.17654 48.4762 8.03003 48.4763 8.90861V44.0557C48.4763 45.102 48.892 46.1055 49.6318 46.8453C50.3717 47.5852 51.3752 48.0009 52.4215 48.0009C53.4679 48.0009 54.4713 47.5852 55.2112 46.8453C55.9511 46.1055 56.3667 45.102 56.3667 44.0557V33.6344C58.4585 34.9789 60.8349 35.8174 63.3073 36.0834C65.7797 36.3494 68.2801 36.0355 70.61 35.1666C72.9399 34.2977 75.0353 32.8978 76.7298 31.0779C78.4244 29.258 79.6715 27.0682 80.3721 24.6823C81.0728 22.2964 81.2077 19.78 80.7663 17.3328C80.3249 14.8857 79.3192 12.5751 77.829 10.5844C76.3388 8.59366 74.4052 6.97764 72.1816 5.86454C69.958 4.75144 67.5055 4.17189 65.0189 4.17188V4.1818ZM65.0189 28.3021C63.42 28.3021 61.8571 27.828 60.5277 26.9398C59.1983 26.0515 58.1621 24.7889 57.5503 23.3118C56.9384 21.8346 56.7783 20.2092 57.0903 18.6411C57.4022 17.073 58.1721 15.6325 59.3027 14.502C60.4332 13.3714 61.8737 12.6015 63.4418 12.2896C65.0099 11.9777 66.6353 12.1377 68.1125 12.7496C69.5896 13.3615 70.8522 14.3976 71.7404 15.727C72.6287 17.0564 73.1028 18.6193 73.1028 20.2182C73.1028 22.3622 72.2511 24.4184 70.7351 25.9344C69.2191 27.4504 67.1629 28.3021 65.0189 28.3021Z" fill="white"/>
<path d="M111.518 16.3965C112.562 16.3965 113.564 16.8114 114.302 17.5498C115.041 18.2883 115.456 19.2899 115.456 20.3342V22.8602C115.336 26.5325 113.777 30.0105 111.115 32.5431C108.453 35.0758 104.902 36.4599 101.228 36.3967C97.5542 36.3335 94.0527 34.8281 91.4795 32.2053C88.9062 29.5826 87.4676 26.0531 87.4744 22.3788V20.3342C87.475 19.2896 87.8905 18.2881 88.6293 17.5497C89.3682 16.8113 90.37 16.3965 91.4146 16.3965C92.4588 16.3971 93.46 16.8122 94.1983 17.5506C94.9367 18.2889 95.3517 19.2901 95.3524 20.3342V22.4557C95.3846 24.051 96.0409 25.57 97.1805 26.6868C98.32 27.8037 99.852 28.4292 101.448 28.4292C103.043 28.4292 104.575 27.8037 105.715 26.6868C106.854 25.57 107.511 24.051 107.543 22.4557V22.3788V20.3342C107.543 19.2901 107.959 18.2889 108.697 17.5506C109.435 16.8122 110.436 16.3971 111.481 16.3965H111.518Z" fill="white"/>
<path d="M22.5596 27.7472H12.0465L25.1352 11.3237C25.1823 11.2666 25.227 11.2071 25.2741 11.1475L25.3237 11.0855C25.9428 10.3035 26.2275 9.30829 26.1154 8.31718C26.0034 7.32607 25.5038 6.41953 24.7257 5.79545C24.6389 5.72101 24.5496 5.64905 24.4578 5.58205L24.4106 5.54484C23.505 4.82279 22.3586 4.82031 21.3016 4.82031H4.79129C2.82862 4.82031 1.0694 6.20237 0.774131 8.14023C0.685372 8.70376 0.719571 9.27983 0.87438 9.8289C1.02919 10.378 1.30094 10.8871 1.671 11.3212C2.04105 11.7554 2.50065 12.1044 3.01826 12.3442C3.53587 12.584 4.09924 12.7091 4.66971 12.7107H13.9248L0.900678 29.0548C0.214928 29.9203 -0.100323 31.0221 0.0238163 32.1194C0.147955 33.2166 0.701393 34.2201 1.56318 34.9106C2.36959 35.5532 3.24795 35.6549 4.32482 35.6946L5.65229 35.6376H22.7035C23.2719 35.6365 23.8333 35.5128 24.3495 35.275C24.8657 35.0372 25.3245 34.6909 25.6948 34.2597C26.065 33.8285 26.3379 33.3225 26.4948 32.7763C26.6517 32.23 26.689 31.6564 26.6041 31.0944C26.3162 29.1367 24.5372 27.7472 22.5596 27.7472Z" fill="white"/>
</g>
<defs>
<clipPath id="clip0">
<rect width="118.515" height="48" fill="white"/>
</clipPath>
</defs>
</svg>
