<svg width="20" height="26" viewBox="0 0 20 26" fill="none" xmlns="http://www.w3.org/2000/svg">
<path opacity="0.4" d="M5.53845 5.36133H18.3351C18.6103 5.36133 18.8743 5.47068 19.069 5.66532C19.2636 5.85996 19.373 6.12394 19.373 6.39921V7.43709C19.373 7.71235 19.2636 7.97634 19.069 8.17098C18.8743 8.36562 18.6103 8.47497 18.3351 8.47497H5.53845L3.99634 6.91815L5.53845 5.36133Z" fill="#323D44"/>
<path d="M6.1641 13.5348L0.30181 7.67507V7.67247C0.108088 7.46951 0 7.19972 0 6.91915C0 6.63857 0.108088 6.36878 0.30181 6.16582L0.304404 6.16322L6.1641 0.303964C6.35874 0.109338 6.62271 0 6.89796 0C7.17322 0 7.43719 0.109338 7.63183 0.303964L8.367 1.03913C8.56162 1.23377 8.67096 1.49774 8.67096 1.773C8.67096 2.04825 8.56162 2.31222 8.367 2.50686L3.99623 6.91828L8.367 11.3293C8.56162 11.5239 8.67096 11.7879 8.67096 12.0631C8.67096 12.3384 8.56162 12.6024 8.367 12.797L7.63183 13.5322C7.43754 13.7271 7.17375 13.8369 6.8985 13.8374C6.62325 13.8379 6.35908 13.729 6.1641 13.5348Z" fill="#323D44"/>
<path opacity="0.4" d="M13.8353 17.5234H1.03871C0.763443 17.5234 0.499454 17.6328 0.304814 17.8274C0.110174 18.0221 0.000825882 18.2861 0.000825882 18.5613V19.5992C0.000825882 19.8745 0.110174 20.1384 0.304814 20.3331C0.499454 20.5277 0.763443 20.6371 1.03871 20.6371H13.8353L15.3774 19.0803L13.8353 17.5234Z" fill="#323D44"/>
<path d="M13.2097 25.6969L19.072 19.8372V19.8346C19.2657 19.6316 19.3738 19.3618 19.3738 19.0813C19.3738 18.8007 19.2657 18.5309 19.072 18.3279L19.0694 18.3253L13.2097 12.4661C13.015 12.2714 12.7511 12.1621 12.4758 12.1621C12.2006 12.1621 11.9366 12.2714 11.7419 12.4661L11.0068 13.2012C10.8122 13.3959 10.7028 13.6599 10.7028 13.9351C10.7028 14.2104 10.8122 14.4743 11.0068 14.669L15.3776 19.0804L11.0068 23.4914C10.8122 23.686 10.7028 23.95 10.7028 24.2252C10.7028 24.5005 10.8122 24.7645 11.0068 24.9591L11.7419 25.6943C11.9362 25.8892 12.2 25.9991 12.4753 25.9995C12.7505 26 13.0147 25.8912 13.2097 25.6969Z" fill="#323D44"/>
</svg>
