<svg width="22" height="24" viewBox="0 0 22 24" fill="none" xmlns="http://www.w3.org/2000/svg">
<g clip-path="url(#clip0)">
<path opacity="0.4" d="M0.373779 9V21.75C0.373779 22.3467 0.610832 22.919 1.03279 23.341C1.45475 23.7629 2.02704 24 2.62378 24H19.1238C19.7205 24 20.2928 23.7629 20.7148 23.341C21.1367 22.919 21.3738 22.3467 21.3738 21.75V9H0.373779ZM6.37378 20.4375C6.37378 20.5867 6.31452 20.7298 6.20903 20.8352C6.10354 20.9407 5.96046 21 5.81128 21H3.93628C3.7871 21 3.64402 20.9407 3.53853 20.8352C3.43304 20.7298 3.37378 20.5867 3.37378 20.4375V18.5625C3.37378 18.4133 3.43304 18.2702 3.53853 18.1648C3.64402 18.0593 3.7871 18 3.93628 18H5.81128C5.96046 18 6.10354 18.0593 6.20903 18.1648C6.31452 18.2702 6.37378 18.4133 6.37378 18.5625V20.4375ZM6.37378 14.4375C6.37378 14.5867 6.31452 14.7298 6.20903 14.8352C6.10354 14.9407 5.96046 15 5.81128 15H3.93628C3.7871 15 3.64402 14.9407 3.53853 14.8352C3.43304 14.7298 3.37378 14.5867 3.37378 14.4375V12.5625C3.37378 12.4133 3.43304 12.2702 3.53853 12.1648C3.64402 12.0593 3.7871 12 3.93628 12H5.81128C5.96046 12 6.10354 12.0593 6.20903 12.1648C6.31452 12.2702 6.37378 12.4133 6.37378 12.5625V14.4375ZM12.3738 20.4375C12.3738 20.5867 12.3145 20.7298 12.209 20.8352C12.1035 20.9407 11.9605 21 11.8113 21H9.93628C9.7871 21 9.64402 20.9407 9.53853 20.8352C9.43304 20.7298 9.37378 20.5867 9.37378 20.4375V18.5625C9.37378 18.4133 9.43304 18.2702 9.53853 18.1648C9.64402 18.0593 9.7871 18 9.93628 18H11.8113C11.9605 18 12.1035 18.0593 12.209 18.1648C12.3145 18.2702 12.3738 18.4133 12.3738 18.5625V20.4375ZM12.3738 14.4375C12.3738 14.5867 12.3145 14.7298 12.209 14.8352C12.1035 14.9407 11.9605 15 11.8113 15H9.93628C9.7871 15 9.64402 14.9407 9.53853 14.8352C9.43304 14.7298 9.37378 14.5867 9.37378 14.4375V12.5625C9.37378 12.4133 9.43304 12.2702 9.53853 12.1648C9.64402 12.0593 9.7871 12 9.93628 12H11.8113C11.9605 12 12.1035 12.0593 12.209 12.1648C12.3145 12.2702 12.3738 12.4133 12.3738 12.5625V14.4375ZM18.3738 20.4375C18.3738 20.5867 18.3145 20.7298 18.209 20.8352C18.1035 20.9407 17.9605 21 17.8113 21H15.9363C15.7871 21 15.644 20.9407 15.5385 20.8352C15.433 20.7298 15.3738 20.5867 15.3738 20.4375V18.5625C15.3738 18.4133 15.433 18.2702 15.5385 18.1648C15.644 18.0593 15.7871 18 15.9363 18H17.8113C17.9605 18 18.1035 18.0593 18.209 18.1648C18.3145 18.2702 18.3738 18.4133 18.3738 18.5625V20.4375ZM18.3738 14.4375C18.3738 14.5867 18.3145 14.7298 18.209 14.8352C18.1035 14.9407 17.9605 15 17.8113 15H15.9363C15.7871 15 15.644 14.9407 15.5385 14.8352C15.433 14.7298 15.3738 14.5867 15.3738 14.4375V12.5625C15.3738 12.4133 15.433 12.2702 15.5385 12.1648C15.644 12.0593 15.7871 12 15.9363 12H17.8113C17.9605 12 18.1035 12.0593 18.209 12.1648C18.3145 12.2702 18.3738 12.4133 18.3738 12.5625V14.4375ZM14.6238 6H16.1238C16.3227 6 16.5135 5.92098 16.6541 5.78033C16.7948 5.63968 16.8738 5.44891 16.8738 5.25V0.75C16.8738 0.551088 16.7948 0.360322 16.6541 0.21967C16.5135 0.0790176 16.3227 0 16.1238 0L14.6238 0C14.4249 0 14.2341 0.0790176 14.0934 0.21967C13.9528 0.360322 13.8738 0.551088 13.8738 0.75V5.25C13.8738 5.44891 13.9528 5.63968 14.0934 5.78033C14.2341 5.92098 14.4249 6 14.6238 6ZM5.62378 6H7.12378C7.32269 6 7.51346 5.92098 7.65411 5.78033C7.79476 5.63968 7.87378 5.44891 7.87378 5.25V0.75C7.87378 0.551088 7.79476 0.360322 7.65411 0.21967C7.51346 0.0790176 7.32269 0 7.12378 0L5.62378 0C5.42487 0 5.2341 0.0790176 5.09345 0.21967C4.9528 0.360322 4.87378 0.551088 4.87378 0.75V5.25C4.87378 5.44891 4.9528 5.63968 5.09345 5.78033C5.2341 5.92098 5.42487 6 5.62378 6Z" fill="#323D44"/>
<path d="M21.3738 5.25V9H0.373779V5.25C0.373779 4.65326 0.610832 4.08097 1.03279 3.65901C1.45475 3.23705 2.02704 3 2.62378 3H4.87378V5.25C4.87378 5.44891 4.9528 5.63968 5.09345 5.78033C5.2341 5.92098 5.42487 6 5.62378 6H7.12378C7.32269 6 7.51346 5.92098 7.65411 5.78033C7.79476 5.63968 7.87378 5.44891 7.87378 5.25V3H13.8738V5.25C13.8738 5.44891 13.9528 5.63968 14.0934 5.78033C14.2341 5.92098 14.4249 6 14.6238 6H16.1238C16.3227 6 16.5135 5.92098 16.6541 5.78033C16.7948 5.63968 16.8738 5.44891 16.8738 5.25V3H19.1238C19.7205 3 20.2928 3.23705 20.7148 3.65901C21.1367 4.08097 21.3738 4.65326 21.3738 5.25Z" fill="#323D44"/>
</g>
<defs>
<clipPath id="clip0">
<rect width="21" height="24" fill="white" transform="translate(0.373779)"/>
</clipPath>
</defs>
</svg>
