<svg width="16" height="16" viewBox="0 0 16 16" fill="none" xmlns="http://www.w3.org/2000/svg">
<g clip-path="url(#clip0)">
<path opacity="0.4" d="M9.98438 4C10.2842 3.99997 10.5771 4.08978 10.8254 4.25783C11.0736 4.42588 11.2658 4.66447 11.3772 4.94281L12 6.5H4L4.62281 4.94281C4.73417 4.66447 4.92638 4.42588 5.17465 4.25783C5.42291 4.08978 5.71583 3.99997 6.01562 4H9.98438ZM2.5 12C2.21956 12.0003 1.94222 11.9414 1.68607 11.8273C1.42991 11.7131 1.20072 11.5462 1.01344 11.3375C1.00452 11.3912 1.00002 11.4456 1 11.5V13C1 13.2652 1.10536 13.5196 1.29289 13.7071C1.48043 13.8946 1.73478 14 2 14H3C3.26522 14 3.51957 13.8946 3.70711 13.7071C3.89464 13.5196 4 13.2652 4 13V12H2.5ZM13.5 12H12V13C12 13.2652 12.1054 13.5196 12.2929 13.7071C12.4804 13.8946 12.7348 14 13 14H14C14.2652 14 14.5196 13.8946 14.7071 13.7071C14.8946 13.5196 15 13.2652 15 13V11.5C15 11.4456 14.9955 11.3912 14.9866 11.3375C14.7993 11.5462 14.5701 11.7131 14.3139 11.8273C14.0578 11.9414 13.7804 12.0003 13.5 12Z" fill="#FFBC00"/>
<path d="M15.6251 5.50002H13.7539L13.2339 4.20002C12.9761 3.5492 12.5282 2.99118 11.9486 2.59873C11.3689 2.20628 10.6845 1.99764 9.98449 2.00002H6.01574C5.31569 1.99769 4.63117 2.20634 4.05144 2.59877C3.47171 2.9912 3.02367 3.5492 2.76574 4.20002L2.24606 5.50002H0.375119C0.318164 5.50008 0.261969 5.5131 0.2108 5.53812C0.159631 5.56313 0.114832 5.59947 0.0798018 5.64438C0.044772 5.68929 0.020432 5.74159 0.00862896 5.79731C-0.00317413 5.85303 -0.00213019 5.9107 0.0116816 5.96596L0.199182 6.71596C0.219447 6.79703 0.266214 6.86902 0.332058 6.92048C0.397902 6.97194 0.479049 6.99994 0.562619 7.00002H1.19012C0.974248 7.18592 0.800901 7.4161 0.681845 7.67491C0.56279 7.93373 0.500812 8.21513 0.500119 8.50002V10C0.500119 10.5305 0.710833 11.0392 1.08591 11.4142C1.46098 11.7893 1.96969 12 2.50012 12H13.5001C14.0306 12 14.5393 11.7893 14.9143 11.4142C15.2894 11.0392 15.5001 10.5305 15.5001 10V8.50002C15.4994 8.21517 15.4374 7.9338 15.3184 7.67499C15.1995 7.41619 15.0262 7.18599 14.8104 7.00002H15.4376C15.5212 7.00001 15.6025 6.97204 15.6684 6.92058C15.7343 6.86911 15.7811 6.79708 15.8014 6.71596L15.9889 5.96596C16.0027 5.91068 16.0037 5.85297 15.9919 5.79723C15.9801 5.74149 15.9557 5.68917 15.9207 5.64426C15.8856 5.59934 15.8407 5.56301 15.7895 5.53802C15.7383 5.51302 15.6821 5.50003 15.6251 5.50002ZM4.62293 4.94283C4.73429 4.66449 4.9265 4.4259 5.17477 4.25785C5.42303 4.0898 5.71595 3.99999 6.01574 4.00002H9.98449C10.2843 3.99999 10.5772 4.0898 10.8255 4.25785C11.0737 4.4259 11.2659 4.66449 11.3773 4.94283L12.0001 6.50002H4.00012L4.62293 4.94283ZM3.00012 8.00002C3.60012 8.00002 4.50012 8.89721 4.50012 9.49533C4.50012 10.0935 3.60012 9.99377 3.00012 9.99377C2.40012 9.99377 2.00012 9.59377 2.00012 8.99689C2.00012 8.40002 2.40012 8.00002 3.00012 8.00002ZM11.5001 9.49533C11.5001 8.89721 12.4001 8.00002 13.0001 8.00002C13.6001 8.00002 14.0001 8.39877 14.0001 8.99689C14.0001 9.59502 13.6001 9.99377 13.0001 9.99377C12.4001 9.99377 11.5001 10.0938 11.5001 9.49533Z" fill="#FFBC00"/>
</g>
<defs>
<clipPath id="clip0">
<rect width="16" height="16" fill="white"/>
</clipPath>
</defs>
</svg>
