<svg width="23" height="24" viewBox="0 0 23 24" fill="none" xmlns="http://www.w3.org/2000/svg">
<g clip-path="url(#clip0)">
<path opacity="0.4" d="M8.27344 6H14.2266C14.6763 5.99996 15.1156 6.13467 15.488 6.38674C15.8604 6.63882 16.1487 6.9967 16.3158 7.41422L17.25 9.75H5.25L6.18422 7.41422C6.35126 6.9967 6.63958 6.63882 7.01197 6.38674C7.38436 6.13467 7.82375 5.99996 8.27344 6ZM19.5 18H17.25V19.5C17.25 19.8978 17.408 20.2794 17.6893 20.5607C17.9706 20.842 18.3522 21 18.75 21H20.25C20.6478 21 21.0294 20.842 21.3107 20.5607C21.592 20.2794 21.75 19.8978 21.75 19.5V17.25C21.7501 17.1683 21.7433 17.0868 21.7298 17.0062C21.4489 17.3194 21.1052 17.5697 20.7209 17.741C20.3367 17.9122 19.9207 18.0005 19.5 18ZM3 18C2.57934 18.0005 2.16331 17.9122 1.77908 17.741C1.39485 17.5697 1.05106 17.3194 0.770157 17.0062C0.756662 17.0868 0.749919 17.1683 0.750001 17.25V19.5C0.750001 19.8978 0.908036 20.2794 1.18934 20.5607C1.47065 20.842 1.85218 21 2.25 21H3.75C4.14783 21 4.52936 20.842 4.81066 20.5607C5.09197 20.2794 5.25 19.8978 5.25 19.5V18H3Z" fill="#323D44"/>
<path d="M20.5622 9.95306L19.1011 6.30009C18.7142 5.32394 18.0422 4.48699 17.1727 3.89835C16.3032 3.30971 15.2766 2.99668 14.2266 3.00009H8.27344C7.22335 2.99659 6.19657 3.30957 5.32698 3.89822C4.45738 4.48686 3.78533 5.32387 3.39844 6.30009L1.93781 9.95306C1.36911 10.1675 0.879133 10.55 0.532999 11.0496C0.186865 11.5492 0.000963686 12.1423 0 12.7501L0 15.0001C0 15.7957 0.316071 16.5588 0.87868 17.1214C1.44129 17.684 2.20435 18.0001 3 18.0001H19.5C20.2956 18.0001 21.0587 17.684 21.6213 17.1214C22.1839 16.5588 22.5 15.7957 22.5 15.0001V12.7501C22.499 12.1423 22.3131 11.5492 21.967 11.0496C21.6209 10.55 21.1309 10.1675 20.5622 9.95306ZM6.18422 7.41431C6.35126 6.99679 6.63958 6.63891 7.01197 6.38683C7.38436 6.13476 7.82375 6.00005 8.27344 6.00009H14.2266C14.6763 6.00005 15.1156 6.13476 15.488 6.38683C15.8604 6.63891 16.1487 6.99679 16.3158 7.41431L17.25 9.75009H5.25L6.18422 7.41431ZM3.75 14.9907C2.85 14.9907 2.25 14.3926 2.25 13.4954C2.25 12.5982 2.85 12.0001 3.75 12.0001C4.65 12.0001 6 13.3459 6 14.2431C6 15.1402 4.65 14.9907 3.75 14.9907ZM18.75 14.9907C17.85 14.9907 16.5 15.1402 16.5 14.2431C16.5 13.3459 17.85 12.0001 18.75 12.0001C19.65 12.0001 20.25 12.5982 20.25 13.4954C20.25 14.3926 19.65 14.9907 18.75 14.9907Z" fill="#323D44"/>
</g>
<defs>
<clipPath id="clip0">
<rect width="22.5" height="24" fill="white"/>
</clipPath>
</defs>
</svg>
