<svg width="30" height="24" viewBox="0 0 30 24" fill="none" xmlns="http://www.w3.org/2000/svg">
<path opacity="0.4" d="M8.25 0C3.65625 0 0 1.29656 0 2.94656V15.1252C-1.04962e-08 15.3057 0.0355769 15.4846 0.104699 15.6514C0.17382 15.8182 0.275132 15.9698 0.402848 16.0975C0.530564 16.2252 0.682181 16.3264 0.849039 16.3955C1.0159 16.4645 1.19473 16.5001 1.37531 16.5H1.875V18C1.875 18.3978 2.03304 18.7794 2.31434 19.0607C2.59564 19.342 2.97718 19.5 3.375 19.5H4.46109C4.85892 19.5 5.24045 19.342 5.52175 19.0607C5.80306 18.7794 5.96109 18.3978 5.96109 18V16.5H9.10172C9.31875 15.352 9.97969 14.34 10.9767 13.7208L11.8205 11.4014C11.9462 11.0894 12.0967 10.788 12.2705 10.5H9V3.75H12.8128C12.9951 3.75012 13.1699 3.82263 13.2988 3.95158C13.4276 4.08052 13.5 4.25536 13.5 4.43766V9.03469C14.3496 8.29096 15.3875 7.79537 16.5 7.60219V2.94656C16.5 1.29656 12.8461 0 8.25 0ZM3.75 14.625C3.5275 14.625 3.30999 14.559 3.12498 14.4354C2.93998 14.3118 2.79578 14.1361 2.71064 13.9305C2.62549 13.725 2.60321 13.4988 2.64662 13.2805C2.69003 13.0623 2.79717 12.8618 2.9545 12.7045C3.11184 12.5472 3.31229 12.44 3.53052 12.3966C3.74875 12.3532 3.97495 12.3755 4.18052 12.4606C4.38609 12.5458 4.56179 12.69 4.6854 12.875C4.80902 13.06 4.875 13.2775 4.875 13.5C4.875 13.7984 4.75647 14.0845 4.5455 14.2955C4.33452 14.5065 4.04837 14.625 3.75 14.625ZM7.5 10.5H3.68719C3.50489 10.4999 3.3301 10.4274 3.20124 10.2984C3.07238 10.1695 3 9.99464 3 9.81234V4.43766C3 4.25536 3.07238 4.08052 3.20124 3.95158C3.3301 3.82263 3.50489 3.75012 3.68719 3.75H7.5V10.5Z" fill="#240555"/>
<path d="M28.3398 14.7918L28.1251 14.2593L27.2874 11.9587C26.9408 11.0837 26.3386 10.3334 25.5593 9.80563C24.78 9.27786 23.8598 8.99711 22.9187 8.99997H17.5815C16.6401 8.99683 15.7196 9.27745 14.94 9.80523C14.1604 10.333 13.558 11.0835 13.2113 11.9587L12.3751 14.2593L12.1618 14.7918C11.6704 14.9954 11.2505 15.3401 10.955 15.7823C10.6594 16.2245 10.5016 16.7444 10.5015 17.2762V18.6211C10.5025 19.0219 10.5938 19.4173 10.7684 19.778C10.943 20.1388 11.1965 20.4556 11.5102 20.7051V22.5C11.5102 22.8978 11.6683 23.2793 11.9496 23.5606C12.2309 23.8419 12.6124 24 13.0102 24H14.0448C14.4426 24 14.8241 23.8419 15.1054 23.5606C15.3867 23.2793 15.5448 22.8978 15.5448 22.5V21H24.9568V22.5C24.9568 22.8978 25.1148 23.2793 25.3961 23.5606C25.6774 23.8419 26.059 24 26.4568 24H27.4913C27.8892 24 28.2707 23.8419 28.552 23.5606C28.8333 23.2793 28.9913 22.8978 28.9913 22.5V20.7047C29.305 20.4552 29.5586 20.1383 29.7332 19.7776C29.9078 19.4168 29.999 19.0214 30.0001 18.6206V17.2757C29.9998 16.744 29.842 16.2242 29.5465 15.7821C29.2509 15.34 28.831 14.9954 28.3398 14.7918ZM15.7083 13.3125C16.0144 12.5193 16.7565 12 17.5833 12H22.9187C23.7437 12 24.4852 12.5203 24.7937 13.3125L25.3595 15H15.1407L15.7083 13.3125ZM14.0626 19.1179C13.3876 19.1179 12.9376 18.6693 12.9376 17.9967C12.9376 17.324 13.3876 16.875 14.0626 16.875C14.7376 16.875 15.7501 17.8842 15.7501 18.5573C15.7501 19.2304 14.7376 19.1179 14.0626 19.1179ZM26.4376 19.1179C25.7626 19.1179 24.7501 19.23 24.7501 18.5554C24.7501 17.8809 25.7626 16.875 26.4376 16.875C27.1126 16.875 27.5626 17.3236 27.5626 17.9967C27.5626 18.6698 27.1126 19.1179 26.4376 19.1179Z" fill="#240555"/>
</svg>
