<svg width="16" height="16" viewBox="0 0 16 16" fill="none" xmlns="http://www.w3.org/2000/svg">
<g clip-path="url(#clip0)">
<path opacity="0.4" d="M15.7656 4.51358L8.27344 12.0473L6 9.76889L13.5034 2.23764C13.5771 2.16333 13.6647 2.10427 13.7613 2.06383C13.8578 2.02339 13.9613 2.00237 14.066 2.00196C14.1706 2.00155 14.2743 2.02177 14.3712 2.06146C14.468 2.10115 14.5561 2.15953 14.6303 2.23326L14.6347 2.23764L15.7656 3.37545C15.9157 3.52681 16 3.73134 16 3.94451C16 4.15768 15.9157 4.36222 15.7656 4.51358Z" fill="#FFBC00"/>
<path d="M8.27094 12.0506L6.56563 13.7653C6.41677 13.9153 6.21442 14 6.00309 14.0008C5.79177 14.0016 5.58877 13.9185 5.43875 13.7696L5.43438 13.7653L0.234375 8.53526C0.0842096 8.384 -6.10352e-05 8.1795 -6.10352e-05 7.96636C-6.10352e-05 7.75321 0.0842096 7.54871 0.234375 7.39745L1.36563 6.25964C1.51424 6.11001 1.71613 6.02542 1.92703 6.02442C2.13792 6.02343 2.3406 6.1061 2.49063 6.25432L2.49563 6.25964L8.27094 12.0506Z" fill="#FFBC00"/>
</g>
<defs>
<clipPath id="clip0">
<rect width="16" height="16" fill="white"/>
</clipPath>
</defs>
</svg>
