<svg width="14" height="16" viewBox="0 0 14 16" fill="none" xmlns="http://www.w3.org/2000/svg">
<path opacity="0.4" d="M7.00332 8.89521L5.22551 10.6696L0.413012 5.84739C0.27237 5.70674 0.193359 5.51599 0.193359 5.31708C0.193359 5.11818 0.27237 4.92742 0.413012 4.78677L1.12082 4.07739C1.26106 3.93717 1.45126 3.8584 1.64957 3.8584C1.84789 3.8584 2.03808 3.93717 2.17832 4.07739L7.00332 8.89521Z" fill="#240555"/>
<path d="M13.5936 5.84833L7.53113 11.9211C7.39085 12.0613 7.20067 12.14 7.00238 12.14C6.80409 12.14 6.61391 12.0613 6.47363 11.9211L5.22363 10.6711L11.828 4.07739C11.9682 3.93717 12.1584 3.8584 12.3568 3.8584C12.5551 3.8584 12.7453 3.93717 12.8855 4.07739L13.5936 4.78771C13.7343 4.92836 13.8133 5.11912 13.8133 5.31802C13.8133 5.51692 13.7343 5.70768 13.5936 5.84833Z" fill="#240555"/>
</svg>
