<svg width="75" height="60" viewBox="0 0 75 60" fill="none" xmlns="http://www.w3.org/2000/svg">
<g clip-path="url(#clip0)">
<path opacity="0.4" d="M35.2254 30.2003C33.3051 34.7477 33.2543 39.8687 35.0839 44.4534C36.9136 49.038 40.4764 52.7168 45 54.6925V57.2062C44.9969 57.9494 44.699 58.6611 44.1717 59.1849C43.6444 59.7087 42.9308 60.0018 42.1875 59.9999H2.79845C2.43003 59.999 2.0654 59.9255 1.72537 59.7837C1.38535 59.6419 1.0766 59.4344 0.816737 59.1733C0.556878 58.9121 0.351004 58.6023 0.210869 58.2616C0.0707348 57.9209 -0.000915681 57.5559 8.83393e-06 57.1874V2.79839C0.000931035 2.42997 0.0744101 2.06533 0.216251 1.72531C0.358091 1.38529 0.565516 1.07654 0.826681 0.816676C1.08785 0.556817 1.39764 0.350943 1.73837 0.210808C2.07909 0.0706738 2.44409 -0.000976716 2.81251 -5.22012e-05H30V13.1249C30 13.6222 30.1975 14.0991 30.5492 14.4508C30.9008 14.8024 31.3777 14.9999 31.875 14.9999H45V20.3121C40.5973 22.2371 37.0994 25.7757 35.2254 30.2003Z" fill="#FFD301"/>
<path d="M45 14.2852C45 13.9174 44.9276 13.5532 44.7868 13.2133C44.6461 12.8735 44.4398 12.5648 44.1797 12.3047L32.707 0.820321C32.4452 0.559368 32.1344 0.3526 31.7926 0.211843C31.4508 0.0710858 31.0845 -0.000898088 30.7148 8.45708e-06H30V13.125C30 13.6223 30.1975 14.0992 30.5492 14.4508C30.9008 14.8025 31.3777 15 31.875 15H45V14.2852ZM74.4504 54.1477L65.3789 45.0762C66.7546 42.7876 67.4874 40.1702 67.5 37.5C67.5 34.5333 66.6203 31.6332 64.972 29.1665C63.3238 26.6997 60.9811 24.7771 58.2403 23.6418C55.4994 22.5065 52.4834 22.2095 49.5736 22.7882C46.6639 23.367 43.9912 24.7956 41.8934 26.8934C39.7956 28.9912 38.367 31.6639 37.7882 34.5737C37.2094 37.4834 37.5065 40.4994 38.6418 43.2403C39.7771 45.9812 41.6997 48.3238 44.1664 49.9721C46.6332 51.6203 49.5333 52.5 52.5 52.5C55.2773 52.5 57.8449 51.6938 60.0762 50.3778L69.1477 59.4504C69.3218 59.6246 69.5285 59.7627 69.756 59.857C69.9835 59.9512 70.2274 59.9997 70.4736 59.9997C70.7199 59.9997 70.9637 59.9512 71.1913 59.857C71.4188 59.7627 71.6255 59.6246 71.7996 59.4504L74.4504 56.7996C74.6245 56.6255 74.7627 56.4188 74.8569 56.1913C74.9512 55.9638 74.9997 55.7199 74.9997 55.4736C74.9997 55.2274 74.9512 54.9835 74.8569 54.756C74.7627 54.5285 74.6245 54.3218 74.4504 54.1477ZM52.5 45C51.0166 45 49.5666 44.5601 48.3332 43.736C47.0999 42.9119 46.1386 41.7406 45.5709 40.3701C45.0032 38.9997 44.8547 37.4917 45.1441 36.0368C45.4335 34.582 46.1478 33.2456 47.1967 32.1967C48.2456 31.1478 49.582 30.4335 51.0368 30.1441C52.4917 29.8547 53.9997 30.0033 55.3701 30.5709C56.7406 31.1386 57.9119 32.0999 58.736 33.3332C59.5601 34.5666 60 36.0167 60 37.5C60 39.4891 59.2098 41.3968 57.8033 42.8033C56.3968 44.2098 54.4891 45 52.5 45Z" fill="#FFD301"/>
</g>
<defs>
<clipPath id="clip0">
<rect width="75" height="60" fill="white"/>
</clipPath>
</defs>
</svg>
