<svg width="20" height="26" viewBox="0 0 20 26" fill="none" xmlns="http://www.w3.org/2000/svg">
<path opacity="0.4" d="M5.53833 5.36145H18.335C18.6102 5.36145 18.8742 5.4708 19.0688 5.66544C19.2635 5.86008 19.3728 6.12407 19.3728 6.39933V7.43721C19.3728 7.71247 19.2635 7.97646 19.0688 8.1711C18.8742 8.36574 18.6102 8.47509 18.335 8.47509H5.53833L3.99622 6.91827L5.53833 5.36145Z" fill="#323D44"/>
<path d="M6.1641 13.5348L0.30181 7.67507V7.67247C0.108088 7.46951 0 7.19972 0 6.91915C0 6.63857 0.108088 6.36878 0.30181 6.16582L0.304404 6.16322L6.1641 0.303964C6.35874 0.109338 6.62271 0 6.89796 0C7.17322 0 7.43719 0.109338 7.63183 0.303964L8.367 1.03913C8.56162 1.23377 8.67096 1.49774 8.67096 1.773C8.67096 2.04825 8.56162 2.31222 8.367 2.50686L3.99623 6.91828L8.367 11.3293C8.56162 11.5239 8.67096 11.7879 8.67096 12.0631C8.67096 12.3384 8.56162 12.6024 8.367 12.797L7.63183 13.5322C7.43754 13.7271 7.17375 13.8369 6.8985 13.8374C6.62325 13.8379 6.35908 13.729 6.1641 13.5348Z" fill="#323D44"/>
<path opacity="0.4" d="M13.8354 17.524H1.03883C0.763565 17.524 0.499577 17.6334 0.304936 17.828C0.110296 18.0227 0.000947952 18.2867 0.000947952 18.5619V19.5998C0.000947952 19.8751 0.110296 20.1391 0.304936 20.3337C0.499577 20.5283 0.763565 20.6377 1.03883 20.6377H13.8354L15.3776 19.0809L13.8354 17.524Z" fill="#323D44"/>
<path d="M13.2097 25.6974L19.072 19.8377V19.8351C19.2657 19.6321 19.3738 19.3623 19.3738 19.0817C19.3738 18.8012 19.2657 18.5314 19.072 18.3284L19.0694 18.3258L13.2097 12.4666C13.015 12.2719 12.7511 12.1626 12.4758 12.1626C12.2006 12.1626 11.9366 12.2719 11.7419 12.4666L11.0068 13.2017C10.8122 13.3964 10.7028 13.6603 10.7028 13.9356C10.7028 14.2108 10.8122 14.4748 11.0068 14.6695L15.3776 19.0809L11.0068 23.4919C10.8122 23.6865 10.7028 23.9505 10.7028 24.2257C10.7028 24.501 10.8122 24.765 11.0068 24.9596L11.7419 25.6948C11.9362 25.8897 12.2 25.9995 12.4753 26C12.7505 26.0005 13.0147 25.8916 13.2097 25.6974Z" fill="#323D44"/>
</svg>
