<svg width="41" height="40" viewBox="0 0 41 40" fill="none" xmlns="http://www.w3.org/2000/svg">
<g clip-path="url(#clip0)">
<path d="M39.4375 20C39.4375 9.29688 30.7656 0.625 20.0625 0.625C9.35938 0.625 0.6875 9.29688 0.6875 20C0.6875 29.6703 7.77266 37.6859 17.0352 39.1406V25.6008H12.1133V20H17.0352V15.7312C17.0352 10.8758 19.9258 8.19375 24.3531 8.19375C26.4734 8.19375 28.6906 8.57188 28.6906 8.57188V13.3375H26.2469C23.8406 13.3375 23.0898 14.8312 23.0898 16.3633V20H28.4633L27.6039 25.6008H23.0898V39.1406C32.3523 37.6859 39.4375 29.6703 39.4375 20Z" fill="#240555"/>
</g>
<defs>
<clipPath id="clip0">
<rect width="40" height="40" fill="white" transform="translate(0.0625)"/>
</clipPath>
</defs>
</svg>
