<svg width="12" height="9" viewBox="0 0 12 9" fill="none" xmlns="http://www.w3.org/2000/svg">
<path d="M5.64752 8.7338L1.27252 4.33443C0.38596 3.44318 0.216897 1.99068 1.01127 1.01474C1.22208 0.753154 1.48569 0.538984 1.78491 0.386218C2.08412 0.233451 2.41219 0.145526 2.7477 0.128184C3.0832 0.110843 3.41859 0.164475 3.73196 0.285578C4.04533 0.406682 4.32962 0.592532 4.56627 0.830988L5.98783 2.25911L7.3119 0.928488C8.19877 0.0375507 9.64471 -0.134012 10.6153 0.664425C10.876 0.877906 11.0892 1.14354 11.2412 1.44427C11.3932 1.745 11.4807 2.07419 11.4979 2.41071C11.5152 2.74722 11.4619 3.08363 11.3415 3.39835C11.2211 3.71306 11.0363 3.99912 10.7988 4.23818L6.32533 8.7338C6.28095 8.77852 6.22815 8.81401 6.16999 8.83823C6.11182 8.86245 6.04944 8.87492 5.98643 8.87492C5.92342 8.87492 5.86104 8.86245 5.80287 8.83823C5.7447 8.81401 5.69191 8.77852 5.64752 8.7338Z" fill="black"/>
</svg>
