<svg width="32" height="32" viewBox="0 0 32 32" fill="none" xmlns="http://www.w3.org/2000/svg">
<circle cx="16" cy="16" r="16" fill="#F6F8F9"/>
<g clip-path="url(#clip0)">
<path opacity="0.4" d="M21.375 19.75C21.3725 20.1664 21.0449 20.5625 20.56 20.5625H10.8145C10.3301 20.5625 10.0023 20.1664 10 19.75C9.9989 19.5449 10.0773 19.3474 10.2186 19.1988C10.7092 18.6717 11.627 17.8785 11.627 15.2812C11.627 13.3084 13.0103 11.7291 14.8755 11.3416V10.8125C14.8755 10.597 14.9611 10.3903 15.1135 10.238C15.2659 10.0856 15.4725 10 15.688 10C15.9035 10 16.1102 10.0856 16.2626 10.238C16.4149 10.3903 16.5005 10.597 16.5005 10.8125V11.3416C18.3642 11.7291 19.7475 13.3084 19.7475 15.2812C19.7475 17.8787 20.6654 18.6717 21.1559 19.1988C21.2974 19.3473 21.3759 19.5448 21.375 19.75Z" fill="#FFBC00"/>
<path d="M14.0625 21.375H17.3125C17.3125 21.806 17.1413 22.2193 16.8365 22.524C16.5318 22.8288 16.1185 23 15.6875 23C15.2565 23 14.8432 22.8288 14.5385 22.524C14.2337 22.2193 14.0625 21.806 14.0625 21.375Z" fill="#FFBC00"/>
</g>
<defs>
<clipPath id="clip0">
<rect width="11.375" height="13" fill="white" transform="translate(10 10)"/>
</clipPath>
</defs>
</svg>
