<svg data-id={props.data} className={props.className} width="12" height="24" viewBox="0 0 12 24" fill="none" xmlns="http://www.w3.org/2000/svg">
<path opacity="0.4" d="M7.88013 2.0625V16.2159H4.13013V2.0625C4.13013 1.91332 4.18939 1.77024 4.29488 1.66475C4.40037 1.55926 4.54344 1.5 4.69263 1.5H7.31763C7.46681 1.5 7.60988 1.55926 7.71537 1.66475C7.82086 1.77024 7.88013 1.91332 7.88013 2.0625Z" fill="#FFBC00"/>
<path d="M10.8361 18.1381L6.80059 22.1722C6.58962 22.3831 6.30348 22.5017 6.00512 22.5017C5.70677 22.5017 5.42063 22.3831 5.20965 22.1722L1.17559 18.1367C0.466842 17.428 0.968873 16.2148 1.97247 16.2148H10.0392C11.0414 16.2162 11.5434 17.428 10.8361 18.1381Z" fill="#FFBC00"/>
<rect x="0.5" y="0.5" width="11" height="23" stroke="#E3EAED"/>
</svg>
