<svg width="32" height="24" viewBox="0 0 32 24" fill="none" xmlns="http://www.w3.org/2000/svg">
<path opacity="0.4" d="M16.0294 18H15.9706C14.0894 18 12.195 16.5363 10.8119 15.4675C10.5869 15.2938 1.54813 8.66875 0 7.45813V21C0 21.7956 0.31607 22.5587 0.87868 23.1213C1.44129 23.6839 2.20435 24 3 24H29C29.7956 24 30.5587 23.6839 31.1213 23.1213C31.6839 22.5587 32 21.7956 32 21V7.46C30.4713 8.65812 21.4125 15.2938 21.1875 15.4675C19.805 16.5363 17.9106 18 16.0294 18ZM29 0H3C2.20435 0 1.44129 0.316071 0.87868 0.87868C0.31607 1.44129 0 2.20435 0 3L0 4.1875C0.000305398 4.41505 0.0522075 4.63958 0.151802 4.84418C0.251397 5.04878 0.396091 5.22813 0.575 5.36875C2.4875 6.8625 3.11875 7.39375 11.4125 13.4125C12.4625 14.175 14.55 16.025 16 16C17.45 16.025 19.5375 14.175 20.5875 13.4125C28.8812 7.39375 29.5125 6.86875 31.425 5.36875C31.6044 5.22861 31.7495 5.04935 31.8491 4.84464C31.9488 4.63993 32.0004 4.41517 32 4.1875V3C32 2.20435 31.6839 1.44129 31.1213 0.87868C30.5587 0.316071 29.7956 0 29 0Z" fill="#323D44"/>
</svg>
