<svg width="21" height="21" viewBox="0 0 21 21" fill="none" xmlns="http://www.w3.org/2000/svg">
<path d="M2.19591 20.0768L9.57244 12.7002C10.7331 13.5966 12.1732 14.15 13.75 14.15C17.5535 14.15 20.65 11.0535 20.65 7.25C20.65 3.44645 17.5535 0.35 13.75 0.35C9.94645 0.35 6.85 3.44645 6.85 7.25C6.85 8.82681 7.40345 10.2669 8.29976 11.4276L0.92909 18.7982C0.87074 18.8566 0.870479 18.9511 0.928506 19.0098L1.98319 20.0762C2.01127 20.1046 2.0495 20.1206 2.08943 20.1207C2.12936 20.1208 2.16768 20.105 2.19591 20.0768ZM13.75 2.15C16.5734 2.15 18.85 4.42659 18.85 7.25C18.85 10.0734 16.5734 12.35 13.75 12.35C10.9266 12.35 8.65 10.0734 8.65 7.25C8.65 4.42659 10.9266 2.15 13.75 2.15Z" fill="#19194A" stroke="#19194A" stroke-width="0.3" stroke-linecap="round" stroke-linejoin="round"/>
</svg>
