<svg width="32" height="32" viewBox="0 0 32 32" fill="none" xmlns="http://www.w3.org/2000/svg">
<circle cx="16" cy="16" r="16" fill="#F6F8F9"/>
<g clip-path="url(#clip0)">
<path opacity="0.4" d="M19.1423 12.5711C19.1423 13.2493 18.9412 13.9121 18.5645 14.476C18.1877 15.0398 17.6523 15.4792 17.0258 15.7387C16.3993 15.9982 15.7099 16.0661 15.0448 15.9338C14.3798 15.8015 13.7689 15.475 13.2894 14.9955C12.8099 14.516 12.4833 13.9051 12.351 13.24C12.2187 12.575 12.2866 11.8856 12.5461 11.2591C12.8056 10.6326 13.2451 10.0971 13.8089 9.7204C14.3727 9.34366 15.0356 9.14258 15.7137 9.14258C16.623 9.14258 17.4951 9.5038 18.1381 10.1468C18.7811 10.7898 19.1423 11.6618 19.1423 12.5711Z" fill="#FFBC00"/>
<path d="M18.1139 16.8564H17.6665C17.0543 17.1388 16.3881 17.2849 15.7139 17.2849C15.0397 17.2849 14.3735 17.1388 13.7612 16.8564H13.3139C12.3592 16.8567 11.4436 17.236 10.7685 17.9111C10.0934 18.5862 9.71408 19.5017 9.71387 20.4564V21.5707C9.71387 21.9117 9.84933 22.2388 10.0904 22.4799C10.3316 22.721 10.6586 22.8564 10.9996 22.8564H20.4282C20.7691 22.8564 21.0962 22.721 21.3373 22.4799C21.5784 22.2388 21.7139 21.9117 21.7139 21.5707V20.4564C21.7137 19.5017 21.3343 18.5862 20.6592 17.9111C19.9841 17.236 19.0686 16.8567 18.1139 16.8564Z" fill="#FFBC00"/>
</g>
<defs>
<clipPath id="clip0">
<rect width="12" height="13.7143" fill="white" transform="translate(9.71387 9.14258)"/>
</clipPath>
</defs>
</svg>
