<svg width="16" height="16" viewBox="0 0 16 16" fill="none" xmlns="http://www.w3.org/2000/svg">
<g clip-path="url(#clip0)">
<path opacity="0.4" d="M15.1109 7.11125H14.4375C12.8538 7.11125 12.0603 5.19656 13.1803 4.07656L13.6563 3.6C13.8132 3.4315 13.8986 3.20866 13.8945 2.97844C13.8904 2.74822 13.7971 2.52857 13.6342 2.36577C13.4714 2.20297 13.2517 2.10973 13.0215 2.10568C12.7913 2.10163 12.5685 2.18709 12.4 2.34406L11.9238 2.81969C10.8038 3.93938 8.88907 3.14625 8.88907 1.5625V0.889063C8.88907 0.653268 8.7954 0.427132 8.62867 0.2604C8.46194 0.0936688 8.2358 0 8.00001 0C7.76421 0 7.53807 0.0936688 7.37134 0.2604C7.20461 0.427132 7.11094 0.653268 7.11094 0.889063V1.56281C7.11094 3.14656 5.19626 3.93969 4.07626 2.82L3.60001 2.34406C3.43154 2.18709 3.20873 2.10163 2.9785 2.10568C2.74828 2.10973 2.52861 2.20297 2.36577 2.36577C2.20293 2.52857 2.10963 2.74822 2.10553 2.97844C2.10142 3.20866 2.18683 3.4315 2.34376 3.6L2.82032 4.07656C3.94032 5.19656 3.14688 7.11125 1.56313 7.11125H0.889068C0.770932 7.10904 0.65354 7.13039 0.543754 7.17407C0.433967 7.21774 0.333987 7.28287 0.249659 7.36563C0.16533 7.44839 0.0983445 7.54713 0.052617 7.65608C0.00688946 7.76503 -0.0166626 7.882 -0.0166626 8.00016C-0.0166626 8.11831 0.00688946 8.23528 0.052617 8.34423C0.0983445 8.45318 0.16533 8.55192 0.249659 8.63468C0.333987 8.71745 0.433967 8.78257 0.543754 8.82625C0.65354 8.86992 0.770932 8.89128 0.889068 8.88906H1.56251C3.14626 8.88906 3.93969 10.8041 2.81969 11.9241L2.34376 12.4003C2.18837 12.5691 2.10425 12.7914 2.10899 13.0208C2.11373 13.2502 2.20697 13.4689 2.3692 13.6311C2.53143 13.7934 2.7501 13.8866 2.97949 13.8913C3.20887 13.8961 3.43121 13.812 3.60001 13.6566L4.07626 13.18C5.19626 12.06 7.11094 12.8534 7.11094 14.4372V15.1103C7.11094 15.3461 7.20461 15.5722 7.37134 15.739C7.53807 15.9057 7.76421 15.9994 8.00001 15.9994C8.2358 15.9994 8.46194 15.9057 8.62867 15.739C8.7954 15.5722 8.88907 15.3461 8.88907 15.1103V14.4378C8.88907 12.8541 10.8038 12.0606 11.9238 13.1806L12.4 13.6566C12.5688 13.812 12.7911 13.8961 13.0205 13.8913C13.2499 13.8866 13.4686 13.7934 13.6308 13.6311C13.793 13.4689 13.8863 13.2502 13.891 13.0208C13.8958 12.7914 13.8116 12.5691 13.6563 12.4003L13.1797 11.9241C12.0597 10.8041 12.8531 8.88906 14.4369 8.88906H15.11C15.2281 8.89128 15.3455 8.86992 15.4553 8.82625C15.5651 8.78257 15.6651 8.71745 15.7494 8.63468C15.8337 8.55192 15.9007 8.45318 15.9465 8.34423C15.9922 8.23528 16.0157 8.11831 16.0157 8.00016C16.0157 7.882 15.9922 7.76503 15.9465 7.65608C15.9007 7.54713 15.8337 7.44839 15.7494 7.36563C15.6651 7.28287 15.5651 7.21774 15.4553 7.17407C15.3455 7.13039 15.2281 7.10904 15.11 7.11125H15.1109ZM7.00001 8.50031C6.70333 8.50031 6.41332 8.41234 6.16665 8.24752C5.91998 8.0827 5.72772 7.84843 5.61419 7.57434C5.50065 7.30025 5.47095 6.99865 5.52883 6.70768C5.58671 6.41671 5.72957 6.14943 5.93934 5.93965C6.14912 5.72987 6.4164 5.58701 6.70737 5.52913C6.99834 5.47126 7.29994 5.50096 7.57403 5.61449C7.84812 5.72802 8.08239 5.92028 8.24721 6.16696C8.41203 6.41363 8.50001 6.70364 8.50001 7.00031C8.50001 7.39814 8.34197 7.77967 8.06067 8.06097C7.77936 8.34228 7.39783 8.50031 7.00001 8.50031ZM9.50001 10.2503C9.35167 10.2503 9.20667 10.2063 9.08333 10.1239C8.95999 10.0415 8.86386 9.92437 8.8071 9.78732C8.75033 9.65028 8.73548 9.49948 8.76442 9.354C8.79336 9.20851 8.86479 9.07487 8.96968 8.96998C9.07457 8.86509 9.2082 8.79366 9.35369 8.76472C9.49917 8.73578 9.64997 8.75064 9.78702 8.8074C9.92406 8.86417 10.0412 8.9603 10.1236 9.08364C10.206 9.20697 10.25 9.35198 10.25 9.50031C10.25 9.69923 10.171 9.88999 10.0303 10.0306C9.88968 10.1713 9.69892 10.2503 9.50001 10.2503Z" fill="#FFBC00"/>
<path d="M8.50012 7.06933C8.50012 7.36601 8.41215 7.65601 8.24732 7.90269C8.0825 8.14936 7.84823 8.34162 7.57414 8.45515C7.30006 8.56868 6.99846 8.59839 6.70749 8.54051C6.41651 8.48263 6.14924 8.33977 5.93946 8.12999C5.72968 7.92021 5.58682 7.65294 5.52894 7.36197C5.47107 7.071 5.50077 6.7694 5.6143 6.49531C5.72783 6.22122 5.92009 5.98695 6.16677 5.82213C6.41344 5.65731 6.70345 5.56934 7.00012 5.56934C7.39794 5.56934 7.77948 5.72737 8.06078 6.00867C8.34208 6.28998 8.50012 6.67151 8.50012 7.06933Z" fill="#FFBC00"/>
</g>
<defs>
<clipPath id="clip0">
<rect width="16" height="16" fill="white"/>
</clipPath>
</defs>
</svg>
