<svg width="16" height="9" viewBox="0 0 16 9" fill="none" xmlns="http://www.w3.org/2000/svg">
<path opacity="0.4" d="M8.45496 5.51284L6.48531 7.38061L1.15351 2.30462C0.997693 2.15656 0.910156 1.95577 0.910156 1.74639C0.910156 1.53702 0.997693 1.33622 1.15351 1.18817L1.9377 0.44146C2.09307 0.293858 2.30379 0.210938 2.5235 0.210938C2.74322 0.210938 2.95394 0.293858 3.10931 0.44146L8.45496 5.51284Z" fill="#240555"/>
<path d="M15.7566 2.3056L9.03989 8.69804C8.88447 8.84556 8.67377 8.92842 8.45409 8.92842C8.2344 8.92842 8.0237 8.84556 7.86828 8.69804L6.4834 7.38225L13.8004 0.441459C13.9558 0.293858 14.1665 0.210938 14.3862 0.210938C14.6059 0.210938 14.8167 0.293858 14.972 0.441459L15.7566 1.18916C15.9124 1.33721 15.9999 1.53801 15.9999 1.74738C15.9999 1.95675 15.9124 2.15755 15.7566 2.3056V2.3056Z" fill="#240555"/>
</svg>
